<svg width="14" height="11" viewBox="0 0 14 11" fill="none" xmlns="http://www.w3.org/2000/svg">
<path d="M11.2872 3.68828L8.98885 1.52508C8.87636 1.41523 8.81148 1.26562 8.80817 1.10842C8.80486 0.951227 8.86339 0.799013 8.97116 0.68453C9.07894 0.570048 9.22734 0.502443 9.38445 0.496263C9.54156 0.490082 9.69481 0.54582 9.81125 0.651482L13.2112 3.85148C13.2708 3.90758 13.3183 3.97527 13.3507 4.05038C13.3832 4.1255 13.3999 4.20646 13.3999 4.28828C13.3999 4.3701 13.3832 4.45106 13.3507 4.52618C13.3183 4.6013 13.2708 4.66898 13.2112 4.72508L9.81125 7.92508C9.75421 7.98077 9.68665 8.02454 9.61251 8.05383C9.53837 8.08312 9.45914 8.09734 9.37944 8.09567C9.29974 8.09399 9.22118 8.07645 9.14833 8.04407C9.07549 8.01168 9.00983 7.96511 8.95519 7.90707C8.90055 7.84903 8.85802 7.78068 8.83009 7.70601C8.80216 7.63135 8.78939 7.55187 8.79253 7.47221C8.79566 7.39256 8.81463 7.31433 8.84834 7.24209C8.88205 7.16985 8.92982 7.10505 8.98885 7.05148L11.2872 4.88828H3.20005C2.82875 4.88828 2.47265 5.03578 2.2101 5.29833C1.94755 5.56088 1.80005 5.91698 1.80005 6.28828V9.88828C1.80005 10.0474 1.73684 10.2 1.62431 10.3125C1.51179 10.4251 1.35918 10.4883 1.20005 10.4883C1.04092 10.4883 0.888306 10.4251 0.775784 10.3125C0.663263 10.2 0.600049 10.0474 0.600049 9.88828V6.28828C0.600049 5.59872 0.873976 4.9374 1.36157 4.4498C1.84916 3.96221 2.51049 3.68828 3.20005 3.68828H11.2872Z" fill="#F0EAE3"/>
</svg>
