<svg width="1440" height="343" viewBox="0 0 1440 343" fill="none" xmlns="http://www.w3.org/2000/svg">
<path d="M782.213 342.99C781.391 342.99 780.536 342.99 779.714 342.99C704.66 325.133 770.466 243.854 826.575 271.789C847.713 282.314 828.232 279.696 817.828 285.53C809.191 290.373 800.12 306.32 784.088 311.762C780.633 312.934 739.762 316.448 755.346 321.755C756.243 322.06 759.583 321.771 761.594 321.755C795.026 321.488 814.206 292.788 821.576 289.277C851.18 275.178 845.171 305.951 832.198 321.13C819.802 335.635 800.381 340.773 782.213 342.99Z" fill="#EDFFB8" fill-opacity="0.25"/>
<path d="M362.691 314.862C340.218 314.845 317.684 314.884 295.211 314.862C291.449 311.199 307.272 310.603 313.331 308.617C344.172 298.505 351.139 277.724 358.318 272.392C365.252 267.241 386.893 264.099 372.064 261.15C357.511 258.256 339.828 291.533 325.828 298.624C316 303.601 302.119 304.001 292.088 308.617C277.208 270.223 339.61 237.741 369.564 254.904C393.021 268.344 379.298 301.529 362.691 314.862Z" fill="#EDFFB8" fill-opacity="0.25"/>
<path d="M1339.9 314.862C1319.51 314.933 1299.06 314.823 1278.67 314.862C1283.42 309.895 1297.79 298.886 1303.03 296.125C1310.71 292.084 1373.31 271.634 1358.02 267.395C1331.72 283.503 1299.57 288.143 1276.79 309.865L1274.92 307.992C1262.85 266.708 1339.62 231.896 1357.39 258.026C1370.69 277.567 1356.18 302.236 1339.9 314.862Z" fill="#EDFFB8" fill-opacity="0.25"/>
<path d="M1381.76 38.8036C1398.05 24.0767 1423.94 33.2461 1439.87 43.7997C1439.85 57.5216 1439.89 71.2995 1439.87 85.0214C1398.9 74.7035 1397.45 51.4086 1388.63 43.1757C1373.56 29.1092 1392.9 65.8654 1409.25 77.5273C1418.14 83.8652 1429.64 86.759 1439.87 90.0185C1439.86 97.0805 1439.88 104.192 1439.87 111.254C1404.06 127.887 1349.69 67.8092 1381.76 38.8036Z" fill="#EDFFB8" fill-opacity="0.25"/>
<path d="M1249.93 314.862C1227.45 314.902 1204.92 314.832 1182.45 314.862C1176.02 309.833 1169.5 301.336 1168.7 293.002C1163.27 236.203 1215.65 327.628 1256.8 291.128C1261.6 300.729 1256.07 307.556 1249.93 314.862Z" fill="#AED246" fill-opacity="0.3"/>
<path d="M0.299128 48.7956C0.286011 37.9877 0.309621 27.1263 0.299128 16.3184C26.9312 37.105 31.8705 37.5144 65.9045 41.3009C70.6828 44.4486 63.2284 56.6739 58.4068 60.038C41.8521 71.5871 14.619 59.8399 0.299128 48.7956Z" fill="#AED246" fill-opacity="0.3"/>
<path d="M0.298972 10.0729C0.297333 8.4186 0.300284 6.73056 0.298972 5.07624C47.8823 -16.1674 79.5799 35.9557 63.405 38.8028C30.0547 32.5857 26.0273 33.8155 0.298972 10.0729Z" fill="#AED246" fill-opacity="0.3"/>
<path d="M29.0406 314.863C40.3798 267.269 88.239 256.145 85.274 314.863C76.5457 314.822 67.7599 314.921 59.0319 314.863C70.7377 303.944 70.5157 265.178 65.2799 279.263C64.6238 281.028 67.5397 293.865 55.2828 314.863C46.5614 314.798 37.7572 315.061 29.0406 314.863Z" fill="#EDFFB8" fill-opacity="0.25"/>
<path d="M0.299221 296.125C-0.41825 269.567 0.392676 242.762 0.299221 216.181C26.8142 232.399 19.9867 300.559 12.1706 303.62C10.3012 304.353 2.43557 297.399 0.299221 296.125Z" fill="#EDFFB8" fill-opacity="0.25"/>
<path d="M1078.18 314.862C1079.01 314.862 1079.86 314.861 1080.68 314.862C1092.07 254.929 1021.98 258.831 1023.2 266.771C1041.01 274.994 1044.05 288.096 1055.07 297.374C1062.19 303.376 1074.61 305.145 1078.18 314.862Z" fill="#EDFFB8" fill-opacity="0.25"/>
<path d="M1029.45 314.862C1044.01 314.874 1058.63 314.853 1073.19 314.862C1070.22 308.405 1059.81 306.259 1056.32 303.62C1050.03 298.874 1019.1 257.397 1014.45 275.514C1011.2 288.201 1019.68 306.27 1029.45 314.862Z" fill="#EDFFB8" fill-opacity="0.25"/>
<path d="M594 325.792C603.529 326.599 613.111 327.402 622.64 328.209C624.226 313.728 657.519 291.248 658.955 284.266C661.595 271.425 608.524 266.095 594 325.792Z" fill="#EDFFB8" fill-opacity="0.25"/>
<path d="M627.621 328.63C640.469 329.719 653.373 330.808 666.222 331.888C671.056 316.58 675.058 297.738 662.015 285.151C655.522 303.415 632.198 308.666 627.621 328.63Z" fill="#EDFFB8" fill-opacity="0.25"/>
<path d="M187.743 314.862C166.521 314.824 145.235 314.925 124.012 314.862C132.281 296.34 199.088 284.745 187.743 314.862Z" fill="#EDFFB8" fill-opacity="0.25"/>
<path d="M119.014 314.863C116.528 314.854 114.002 314.872 111.516 314.863C93.649 278.345 153.837 281.435 173.373 289.88C195.846 299.594 137.137 281.888 119.014 314.863Z" fill="#EDFFB8" fill-opacity="0.25"/>
<path d="M937.519 314.863C920.46 314.872 903.344 314.856 886.285 314.863C901.117 291.714 952.034 299.255 937.519 314.863Z" fill="#EDFFB8" fill-opacity="0.25"/>
<path d="M573.982 314.862C554.008 314.854 533.974 314.87 514 314.862C534.211 296.473 583.362 299.452 573.982 314.862Z" fill="#EDFFB8" fill-opacity="0.25"/>
<path d="M1439.81 191.962C1439.83 180.739 1439.79 169.458 1439.81 158.235C1415.79 159.891 1424.47 174.832 1416.07 190.088C1423.23 196.173 1431.48 195.066 1439.81 191.962Z" fill="#AED246" fill-opacity="0.3"/>
<path d="M1439.81 155.737C1439.82 149.507 1439.8 143.23 1439.81 137C1418.93 147.373 1396.99 160.856 1414.19 185.716C1418.7 183.795 1408.09 156.276 1439.81 155.737Z" fill="#AED246" fill-opacity="0.3"/>
<path d="M484.486 314.862C468.677 314.877 452.81 314.849 437 314.862C449.542 298.175 472.498 297.643 484.486 314.862Z" fill="#AED246" fill-opacity="0.3"/>
<path d="M1439.96 279.861C1439.77 291.494 1440.11 303.203 1439.96 314.838C1423.74 314.955 1407.45 314.68 1391.23 314.838C1414.47 307.819 1423.9 296.243 1439.96 279.861ZM1367.48 314.838C1357.43 277.082 1405.97 249.18 1439.96 258.627C1439.93 264.021 1440.03 269.471 1439.96 274.865C1439.93 274.883 1439.9 274.9 1439.87 274.918C1439.87 274.909 1439.87 274.9 1439.87 274.891C1427.74 281.654 1421.39 295.545 1409.25 302.372C1404.77 304.892 1400.02 306.481 1395.19 307.78C1390.75 308.968 1386.25 309.915 1381.84 311.114C1378.21 312.096 1374.63 313.247 1371.19 314.838C1369.97 314.846 1368.71 314.83 1367.48 314.838Z" fill="#AED246" fill-opacity="0.3"/>
<path d="M58.1328 102.248C35.06 89.9145 12.2175 106.46 0.0253868 125.981C0.0703104 144.281 -0.0493767 162.644 0.0253868 180.943C59.0582 211.963 94.8909 121.897 58.1328 102.248ZM45.0117 120.359C47.6521 117.009 52.5649 102.707 55.6338 103.496C67.2567 106.486 34.4541 136.311 31.2656 141.595C25.821 150.619 24.3594 162.923 20.0186 170.325C17.9092 173.922 4.73663 189.168 5.02343 179.069C5.04737 178.229 13.9726 170.815 16.2705 166.578C20.4294 158.909 22.3563 147.354 27.5166 139.097C31.8549 132.155 40.2114 126.449 45.0117 120.359Z" fill="#EDFFB8" fill-opacity="0.25"/>
</svg>
