<svg width="8" height="10" viewBox="0 0 8 10" fill="none" xmlns="http://www.w3.org/2000/svg">
<path d="M4.18761 9.81055L7.71786 6.2803C7.7875 6.21066 7.84273 6.128 7.88042 6.03702C7.9181 5.94604 7.9375 5.84852 7.9375 5.75005C7.9375 5.65157 7.9181 5.55406 7.88042 5.46308C7.84273 5.3721 7.7875 5.28943 7.71786 5.2198C7.64823 5.15016 7.56556 5.09493 7.47458 5.05724C7.3836 5.01956 7.28609 5.00016 7.18761 5.00016C7.08914 5.00016 6.99162 5.01956 6.90064 5.05724C6.80966 5.09493 6.727 5.15016 6.65736 5.2198L4.93761 6.93955L4.93761 1.25005C4.93761 1.05113 4.8586 0.860368 4.71794 0.719716C4.57729 0.579063 4.38653 0.500046 4.18761 0.500046C3.9887 0.500046 3.79794 0.579063 3.65728 0.719716C3.51663 0.860367 3.43761 1.05113 3.43761 1.25005L3.43761 6.93955L1.71786 5.2198C1.64837 5.14991 1.56575 5.09445 1.47475 5.0566C1.38375 5.01875 1.28617 4.99927 1.18761 4.99927C1.08906 4.99927 0.991474 5.01875 0.900474 5.0566C0.809474 5.09445 0.726853 5.14991 0.657363 5.2198C0.51676 5.36044 0.437774 5.55117 0.437774 5.75005C0.437774 5.94892 0.51676 6.13965 0.657363 6.2803L4.18761 9.81055Z" fill="#F0EAE3"/>
</svg>
