<svg width="6" height="8" viewBox="0 0 6 8" fill="none" xmlns="http://www.w3.org/2000/svg">
<path d="M2.99998 7.75781L5.82428 4.93351C5.87999 4.8778 5.92418 4.81166 5.95433 4.73888C5.98448 4.66609 6 4.58808 6 4.50929C6 4.43051 5.98448 4.3525 5.95433 4.27971C5.92418 4.20692 5.87999 4.14079 5.82428 4.08508C5.76858 4.02937 5.70244 3.98518 5.62965 3.95503C5.55687 3.92488 5.47885 3.90936 5.40007 3.90936C5.32128 3.90936 5.24327 3.92488 5.17049 3.95503C5.0977 3.98518 5.03156 4.02937 4.97585 4.08508L3.6 5.46093L3.6 0.909163C3.6 0.750027 3.53679 0.597409 3.42426 0.484883C3.31174 0.372357 3.15912 0.30914 2.99998 0.30914C2.84085 0.30914 2.68823 0.372357 2.5757 0.484883C2.46318 0.597408 2.39996 0.750027 2.39996 0.909163L2.39996 5.46093L1.02411 4.08508C0.968516 4.02917 0.902417 3.98479 0.829614 3.95452C0.756811 3.92424 0.678742 3.90865 0.599894 3.90865C0.521046 3.90865 0.442977 3.92424 0.370174 3.95452C0.297372 3.98479 0.231272 4.02917 0.175678 4.08508C0.0631917 4.1976 2.97904e-07 4.35019 2.83995e-07 4.50929C2.70085e-07 4.6684 0.0631917 4.82099 0.175678 4.93351L2.99998 7.75781Z" fill="#3B3D34"/>
</svg>
