<svg width="16" height="14" viewBox="0 0 16 14" fill="none" xmlns="http://www.w3.org/2000/svg">
<path d="M13.3591 9.18848L10.4861 11.8925C10.3454 12.0298 10.2643 12.2168 10.2602 12.4133C10.2561 12.6098 10.3292 12.8001 10.464 12.9432C10.5987 13.0863 10.7842 13.1708 10.9806 13.1785C11.1769 13.1862 11.3685 13.1166 11.5141 12.9845L15.7641 8.98448C15.8385 8.91436 15.8979 8.82975 15.9384 8.73585C15.979 8.64195 15.9999 8.54076 15.9999 8.43848C15.9999 8.3362 15.979 8.235 15.9384 8.1411C15.8979 8.04721 15.8385 7.9626 15.7641 7.89248L11.5141 3.89248C11.4428 3.82286 11.3583 3.76815 11.2656 3.73154C11.173 3.69492 11.0739 3.67715 10.9743 3.67924C10.8747 3.68134 10.7765 3.70327 10.6854 3.74374C10.5944 3.78422 10.5123 3.84244 10.444 3.91499C10.3757 3.98755 10.3225 4.07298 10.2876 4.16631C10.2527 4.25964 10.2367 4.35899 10.2407 4.45856C10.2446 4.55813 10.2683 4.65592 10.3104 4.74622C10.3526 4.83652 10.4123 4.91751 10.4861 4.98448L13.3591 7.68848H3.25006C2.78593 7.68848 2.34081 7.5041 2.01262 7.17591C1.68443 6.84772 1.50006 6.40261 1.50006 5.93848V1.43848C1.50006 1.23956 1.42104 1.0488 1.28039 0.908146C1.13974 0.767494 0.948974 0.688477 0.750061 0.688477C0.551148 0.688477 0.360383 0.767494 0.21973 0.908146C0.0790777 1.0488 6.10352e-05 1.23956 6.10352e-05 1.43848V5.93848C6.10352e-05 6.80043 0.34247 7.62708 0.951963 8.23657C1.56146 8.84607 2.38811 9.18848 3.25006 9.18848H13.3591Z" fill="#3C3A37"/>
</svg>
