<svg width="20" height="21" viewBox="0 0 20 21" fill="none" xmlns="http://www.w3.org/2000/svg">
<mask id="mask0_1132_12700" style="mask-type:luminance" maskUnits="userSpaceOnUse" x="0" y="0" width="20" height="21">
<path d="M10 20.6113C15.5228 20.6113 20 16.1342 20 10.6113C20 5.08848 15.5228 0.611328 10 0.611328C4.47715 0.611328 0 5.08848 0 10.6113C0 16.1342 4.47715 20.6113 10 20.6113Z" fill="white"/>
</mask>
<g mask="url(#mask0_1132_12700)">
<path d="M-5.02942 0.611328H25.0306V20.6513H-5.02942V0.611328Z" fill="#F89939"/>
</g>
<mask id="mask1_1132_12700" style="mask-type:luminance" maskUnits="userSpaceOnUse" x="0" y="0" width="20" height="21">
<path d="M10 20.6113C15.5228 20.6113 20 16.1342 20 10.6113C20 5.08848 15.5228 0.611328 10 0.611328C4.47715 0.611328 0 5.08848 0 10.6113C0 16.1342 4.47715 20.6113 10 20.6113Z" fill="white"/>
</mask>
<g mask="url(#mask1_1132_12700)">
<path d="M-5.02942 7.29102H25.0306V13.971H-5.02942V7.29102Z" fill="white"/>
</g>
<mask id="mask2_1132_12700" style="mask-type:luminance" maskUnits="userSpaceOnUse" x="0" y="0" width="20" height="21">
<path d="M10 20.6113C15.5228 20.6113 20 16.1342 20 10.6113C20 5.08848 15.5228 0.611328 10 0.611328C4.47715 0.611328 0 5.08848 0 10.6113C0 16.1342 4.47715 20.6113 10 20.6113Z" fill="white"/>
</mask>
<g mask="url(#mask2_1132_12700)">
<path d="M-5.02942 13.9707H25.0306V20.6507H-5.02942V13.9707Z" fill="#1E8943"/>
</g>
<mask id="mask3_1132_12700" style="mask-type:luminance" maskUnits="userSpaceOnUse" x="0" y="0" width="20" height="21">
<path d="M10 20.6113C15.5228 20.6113 20 16.1342 20 10.6113C20 5.08848 15.5228 0.611328 10 0.611328C4.47715 0.611328 0 5.08848 0 10.6113C0 16.1342 4.47715 20.6113 10 20.6113Z" fill="white"/>
</mask>
<g mask="url(#mask3_1132_12700)">
<path d="M10.0002 13.303C11.476 13.303 12.6722 12.1067 12.6722 10.631C12.6722 9.15528 11.476 7.95898 10.0002 7.95898C8.52454 7.95898 7.32825 9.15528 7.32825 10.631C7.32825 12.1067 8.52454 13.303 10.0002 13.303Z" fill="#2A2C7A"/>
</g>
<mask id="mask4_1132_12700" style="mask-type:luminance" maskUnits="userSpaceOnUse" x="0" y="0" width="20" height="21">
<path d="M10 20.6113C15.5228 20.6113 20 16.1342 20 10.6113C20 5.08848 15.5228 0.611328 10 0.611328C4.47715 0.611328 0 5.08848 0 10.6113C0 16.1342 4.47715 20.6113 10 20.6113Z" fill="white"/>
</mask>
<g mask="url(#mask4_1132_12700)">
<path d="M11.7814 9.12003C11.7405 9.07193 11.6981 9.02511 11.6535 8.98047L10.7183 10.029L10.347 10.3207C10.3636 10.3391 10.3789 10.3587 10.3925 10.3796L10.7702 10.0967L12.0248 9.46479C11.9931 9.41003 11.9594 9.35661 11.9235 9.30479C11.8725 9.34183 11.801 9.33191 11.7623 9.28157C11.7238 9.23133 11.7327 9.15987 11.7814 9.12003Z" fill="white"/>
<path d="M9.71052 8.42889C9.6476 8.43713 9.59008 8.39365 9.58004 8.33139C9.45442 8.35421 9.3322 8.38673 9.21442 8.42879C9.23726 8.48787 9.2092 8.55461 9.15038 8.57891C9.09164 8.60325 9.02456 8.57599 8.99892 8.51805C8.94174 8.54519 8.88604 8.57493 8.83154 8.60647L9.60222 9.78099L9.78776 10.2149C9.80974 10.2036 9.83262 10.1939 9.85642 10.1862L9.68094 9.74835L9.39522 8.37265L9.83576 9.70693L9.90268 10.1737C9.92662 10.1686 9.95134 10.1658 9.97648 10.1646L9.92024 9.69573L10.0004 8.29297C9.93662 8.29297 9.87366 8.29625 9.8112 8.30125C9.81758 8.36379 9.77328 8.42055 9.71052 8.42889Z" fill="white"/>
<path d="M11.3525 8.86982C11.3022 8.83112 11.2923 8.7597 11.3293 8.70864C11.2775 8.67276 11.2241 8.63908 11.1693 8.60742L10.5374 9.86204L10.2545 10.2397C10.2754 10.2533 10.295 10.2686 10.3134 10.2852L10.6051 9.91392L11.6537 8.97872C11.609 8.9341 11.5622 8.89166 11.5141 8.85076C11.4743 8.8995 11.4028 8.90838 11.3525 8.86982Z" fill="white"/>
<path d="M10.605 11.3498L10.3134 10.9785C10.295 10.9951 10.2754 11.0104 10.2545 11.0239L10.5374 11.4016L11.1693 12.6562C11.2241 12.6246 11.2775 12.5909 11.3293 12.555C11.2923 12.504 11.3022 12.4325 11.3525 12.3938C11.4028 12.3553 11.4743 12.3642 11.5141 12.4129C11.5622 12.372 11.609 12.3296 11.6537 12.2849L10.605 11.3498Z" fill="white"/>
<path d="M10.9353 10.7129L10.4665 10.6567C10.4652 10.6818 10.4624 10.7065 10.4573 10.7305L10.9241 10.7974L12.2583 11.2379L10.8827 10.9522L10.4448 10.7767C10.4371 10.8006 10.4274 10.8234 10.4161 10.8454L10.85 11.0309L12.0246 11.8016C12.0561 11.7471 12.0858 11.6914 12.113 11.6343C12.055 11.6086 12.0278 11.5415 12.0521 11.4828C12.0764 11.424 12.1432 11.3959 12.2022 11.4187C12.2443 11.301 12.2768 11.1788 12.2996 11.0531C12.2374 11.0431 12.1939 10.9856 12.2021 10.9227C12.2104 10.8599 12.2672 10.8156 12.3297 10.822C12.3348 10.7595 12.338 10.6966 12.338 10.6328L10.9353 10.7129Z" fill="white"/>
<path d="M12.2021 10.3419C12.1939 10.279 12.2373 10.2214 12.2996 10.2114C12.2768 10.0858 12.2442 9.96355 12.2022 9.84577C12.1432 9.86861 12.0764 9.84055 12.0521 9.78173C12.0277 9.72299 12.055 9.65591 12.113 9.63027C12.0858 9.57309 12.0561 9.51739 12.0245 9.46289L10.85 10.2336L10.4161 10.4191C10.4274 10.4411 10.4371 10.464 10.4448 10.4878L10.8827 10.3123L12.2583 10.0266L10.9241 10.4671L10.4573 10.534C10.4624 10.558 10.4652 10.5827 10.4665 10.6078L10.9353 10.5516L12.338 10.6317C12.338 10.568 12.3348 10.505 12.3297 10.4426C12.2672 10.4489 12.2104 10.4046 12.2021 10.3419Z" fill="white"/>
<path d="M10.7702 11.1677L10.3925 10.8848C10.3789 10.9056 10.3636 10.9252 10.347 10.9436L10.7183 11.2353L11.6535 12.2839C11.6981 12.2393 11.7405 12.1924 11.7814 12.1443C11.7327 12.1045 11.7238 12.033 11.7624 11.9828C11.801 11.9324 11.8725 11.9225 11.9236 11.9595C11.9594 11.9077 11.9931 11.8543 12.0248 11.7995L10.7702 11.1677Z" fill="white"/>
<path d="M10.0245 10.1645C10.0496 10.1658 10.0743 10.1686 10.0983 10.1737L10.1652 9.70691L10.6057 8.37263L10.32 9.74833L10.1446 10.1862C10.1684 10.1939 10.1912 10.2036 10.2132 10.2148L10.3987 9.78097L11.1694 8.60645C11.1149 8.57491 11.0592 8.54521 11.0021 8.51805C10.9764 8.57599 10.9093 8.60325 10.8506 8.57891C10.7918 8.55461 10.7637 8.48787 10.7865 8.42879C10.6688 8.38673 10.5466 8.35421 10.4209 8.33139C10.4109 8.39365 10.3534 8.43711 10.2905 8.42889C10.2277 8.42057 10.1834 8.36381 10.1898 8.30125C10.1273 8.29625 10.0644 8.29297 10.0006 8.29297L10.0808 9.69571L10.0245 10.1645Z" fill="white"/>
<path d="M9.39565 9.91394L9.68735 10.2852C9.70573 10.2686 9.72529 10.2533 9.74617 10.2397L9.46327 9.86206L8.83139 8.60742C8.77663 8.6391 8.72321 8.67278 8.67139 8.70866C8.70843 8.75972 8.69851 8.83116 8.64817 8.86984C8.59791 8.9084 8.52645 8.89952 8.48661 8.85076C8.43851 8.89168 8.39167 8.93408 8.34705 8.97872L9.39565 9.91394Z" fill="white"/>
<path d="M9.22984 10.0967L9.60752 10.3796C9.62108 10.3587 9.63636 10.3391 9.65298 10.3207L9.28172 10.029L8.34652 8.98047C8.30188 9.02509 8.25946 9.07193 8.21856 9.12003C8.26732 9.15987 8.27618 9.23133 8.23764 9.28159C8.19896 9.33193 8.12752 9.34185 8.07646 9.30481C8.04058 9.35663 8.0069 9.41005 7.97522 9.46481L9.22984 10.0967Z" fill="white"/>
<path d="M9.97648 11.0991C9.95134 11.0979 9.92662 11.095 9.90268 11.09L9.83576 11.5568L9.39522 12.891L9.68094 11.5153L9.85642 11.0775C9.83262 11.0698 9.80974 11.0601 9.78776 11.0488L9.60222 11.4827L8.83154 12.6572C8.88606 12.6888 8.94174 12.7185 8.99892 12.7457C9.02456 12.6877 9.09164 12.6604 9.15038 12.6848C9.2092 12.7091 9.23726 12.7759 9.21442 12.8349C9.3322 12.8769 9.45442 12.9095 9.58004 12.9323C9.59008 12.87 9.64758 12.8266 9.7105 12.8348C9.77326 12.8431 9.81758 12.8999 9.81118 12.9624C9.87364 12.9675 9.9366 12.9707 10.0004 12.9707L9.92024 11.5679L9.97648 11.0991Z" fill="white"/>
<path d="M8.83139 12.6562L9.46327 11.4016L9.74617 11.0239C9.72529 11.0104 9.70575 10.9951 9.68735 10.9785L9.39563 11.3497L8.34705 12.2849C8.39169 12.3296 8.43851 12.372 8.48661 12.4129C8.52645 12.3642 8.59791 12.3553 8.64817 12.3938C8.69851 12.4325 8.70843 12.504 8.67139 12.555C8.72321 12.5909 8.77663 12.6246 8.83139 12.6562Z" fill="white"/>
<path d="M10.2899 12.8348C10.3528 12.8266 10.4103 12.87 10.4203 12.9323C10.5459 12.9094 10.6682 12.8769 10.7859 12.8349C10.7631 12.7758 10.7912 12.7091 10.85 12.6847C10.9087 12.6604 10.9758 12.6877 11.0014 12.7456C11.0586 12.7185 11.1143 12.6887 11.1688 12.6572L10.3981 11.4827L10.2126 11.0488C10.1906 11.0601 10.1678 11.0698 10.1439 11.0775L10.3194 11.5153L10.6051 12.891L10.1646 11.5568L10.0977 11.09C10.0737 11.095 10.049 11.0979 10.0239 11.0991L10.0801 11.5679L10 12.9707C10.0638 12.9707 10.1267 12.9674 10.1892 12.9624C10.1828 12.8999 10.2271 12.8431 10.2899 12.8348Z" fill="white"/>
<path d="M7.88682 11.6323C7.91398 11.6895 7.94368 11.7452 7.97522 11.7997L9.14974 11.029L9.58362 10.8435C9.57238 10.8215 9.56266 10.7987 9.55494 10.7748L9.1171 10.9503L7.7414 11.236L9.07568 10.7955L9.5425 10.7285C9.5374 10.7046 9.53458 10.6799 9.53332 10.6547L9.06448 10.711L7.66174 10.6309C7.66174 10.6946 7.66502 10.7576 7.67002 10.82C7.73256 10.8137 7.78934 10.858 7.79766 10.9207C7.8059 10.9836 7.76242 11.0412 7.70016 11.0512C7.72298 11.1768 7.7555 11.299 7.79756 11.4168C7.85664 11.3939 7.92338 11.422 7.94768 11.4808C7.97202 11.5396 7.94474 11.6067 7.88682 11.6323Z" fill="white"/>
<path d="M9.65296 10.9436C9.63634 10.9252 9.62106 10.9056 9.60752 10.8848L9.22984 11.1677L7.97522 11.7996C8.00688 11.8543 8.04056 11.9077 8.07644 11.9595C8.1275 11.9225 8.19894 11.9325 8.23762 11.9828C8.27618 12.033 8.2673 12.1045 8.21854 12.1443C8.25946 12.1924 8.30188 12.2393 8.3465 12.2839L9.2817 11.2353L9.65296 10.9436Z" fill="white"/>
<path d="M9.53334 10.6078C9.53462 10.5827 9.53744 10.558 9.54252 10.534L9.0757 10.4671L7.74142 10.0266L9.11712 10.3123L9.55496 10.4878C9.56266 10.464 9.57238 10.4411 9.58364 10.4191L9.14976 10.2336L7.97524 9.46289C7.9437 9.51741 7.91398 9.57309 7.88682 9.63027C7.94476 9.65591 7.97204 9.72299 7.94768 9.78173C7.92338 9.84055 7.85664 9.86861 7.79756 9.84577C7.7555 9.96355 7.72298 10.0858 7.70016 10.2114C7.76242 10.2214 7.80588 10.2789 7.79766 10.3419C7.78934 10.4046 7.73258 10.4489 7.67002 10.4426C7.66502 10.505 7.66174 10.568 7.66174 10.6317L9.06448 10.5516L9.53334 10.6078Z" fill="white"/>
</g>
</svg>
