<svg width="19" height="19" viewBox="0 0 19 19" fill="none" xmlns="http://www.w3.org/2000/svg">
<g clip-path="url(#clip0_1799_34790)">
<path d="M9.34778 18.3477C14.3183 18.3477 18.3478 14.3182 18.3478 9.34766C18.3478 4.37709 14.3183 0.347656 9.34778 0.347656C4.37722 0.347656 0.347778 4.37709 0.347778 9.34766C0.347778 14.3182 4.37722 18.3477 9.34778 18.3477Z" fill="#F0F0F0"/>
<path d="M17.788 6.2168H0.907571C0.545813 7.19179 0.347778 8.24633 0.347778 9.34721C0.347778 10.4481 0.545813 11.5026 0.907571 12.4776H17.788C18.1498 11.5026 18.3478 10.4481 18.3478 9.34721C18.3478 8.24633 18.1498 7.19179 17.788 6.2168Z" fill="#D80027"/>
<path d="M9.34773 0.347656C6.61992 0.347656 4.17575 1.56139 2.52527 3.47807H16.1701C14.5197 1.56139 12.0755 0.347656 9.34773 0.347656Z" fill="#0052B4"/>
<path d="M16.1702 15.2168H2.52527C4.17575 17.1335 6.61992 18.3472 9.34773 18.3472C12.0755 18.3472 14.5197 17.1335 16.1702 15.2168Z" fill="#0052B4"/>
</g>
<defs>
<clipPath id="clip0_1799_34790">
<rect width="18" height="18" fill="white" transform="translate(0.347778 0.347656)"/>
</clipPath>
</defs>
</svg>
