<svg width="18" height="18" viewBox="0 0 18 18" fill="none" xmlns="http://www.w3.org/2000/svg">
<path d="M9.04373 17.6525C13.8463 17.6525 17.7396 13.7595 17.7396 8.95713C17.7396 4.15479 13.8463 0.261719 9.04373 0.261719C4.24115 0.261719 0.3479 4.15479 0.3479 8.95713C0.3479 13.7595 4.24115 17.6525 9.04373 17.6525Z" fill="#F0F0F0"/>
<path d="M9.04391 0.261719C5.59635 0.261719 2.61749 2.26795 1.21094 5.17653H16.8768C15.4703 2.26795 12.4914 0.261719 9.04391 0.261719Z" fill="#0052B4"/>
<path d="M9.04391 17.6531C12.4914 17.6531 15.4703 15.6469 16.8769 12.7383H1.21094C2.61749 15.6469 5.59635 17.6531 9.04391 17.6531Z" fill="#0052B4"/>
<path d="M7.29736 9.33511L9.04363 6.31055L10.7899 9.33511H7.29736Z" fill="#FFDA44"/>
<path d="M11.3123 10.3345L9.04383 11.4688L6.77539 10.3345V8.82227H11.3123V10.3345Z" fill="#6DA544"/>
<path d="M11.1825 6.43945L10.3805 7.24146C10.7226 7.58354 10.9342 8.05613 10.9342 8.57814C10.9342 9.62216 10.0878 10.4685 9.04385 10.4685C7.99986 10.4685 7.15349 9.62213 7.15349 8.57814C7.15349 8.05613 7.36511 7.58354 7.70719 7.24146L6.90519 6.43945C6.35781 6.98674 6.01929 7.74288 6.01929 8.57814C6.01929 10.2486 7.37343 11.6027 9.04385 11.6027C10.7143 11.6027 12.0684 10.2486 12.0684 8.57814C12.0684 7.74288 11.7299 6.98674 11.1825 6.43945Z" fill="#FFDA44"/>
</svg>
