<svg width="18" height="18" viewBox="0 0 18 18" fill="none" xmlns="http://www.w3.org/2000/svg">
<path fill-rule="evenodd" clip-rule="evenodd" d="M9.03915 0.261719C4.23866 0.264195 0.3479 4.15644 0.3479 8.95737C0.3479 13.7599 4.24115 17.653 9.04373 17.653C13.8463 17.653 17.7396 13.7599 17.7396 8.95737C17.7396 4.15644 13.8488 0.264195 9.04831 0.261719H9.03915Z" fill="#FFE70E"/>
<path fill-rule="evenodd" clip-rule="evenodd" d="M17.1914 12.002H0.894775C2.12848 15.3034 5.31125 17.6541 9.04312 17.6541C12.775 17.6541 15.9577 15.3034 17.1914 12.002Z" fill="#E92B2B"/>
<path fill-rule="evenodd" clip-rule="evenodd" d="M9.07616 0.261719H9.01009C5.2925 0.27555 2.12482 2.62216 0.894775 5.91389H17.1915C15.9614 2.62216 12.7938 0.27555 9.07616 0.261719Z" fill="#32AB45"/>
<path d="M13.391 8.9572C13.391 11.3584 11.4444 13.305 9.04314 13.305C6.6419 13.305 4.69531 11.3584 4.69531 8.9572C4.69531 6.55596 6.6419 4.60938 9.04314 4.60938C11.4444 4.60938 13.391 6.55596 13.391 8.9572Z" fill="#2A2FAF"/>
<path fill-rule="evenodd" clip-rule="evenodd" d="M9.04325 5.38086L9.74173 7.64126L10.9196 6.1769L11.1802 6.38653L10.024 7.82399H12.2132L10.4118 9.20011L12.1092 9.80306L11.9973 10.1182L10.3234 9.52364L11.0111 11.7489L9.21044 10.3734V11.9673H8.87601V10.3734L7.07539 11.7489L7.76304 9.52364L6.08917 10.1182L5.97721 9.80306L7.67465 9.20011L5.87329 7.82399H8.0625L6.90625 6.38653L7.16685 6.1769L8.34472 7.64126L9.04325 5.38086ZM8.1849 8.15846L7.93226 8.97605L6.86199 8.15846H8.1849ZM8.21545 9.19239L8.53498 8.15846H9.55151L9.871 9.19239L9.04325 9.82476L8.21545 9.19239ZM8.11025 9.53288L8.76778 10.0352L7.70388 10.8479L8.11025 9.53288ZM9.31871 10.0352L9.97624 9.53288L10.3826 10.8479L9.31871 10.0352ZM10.1542 8.97605L9.90155 8.15846H11.2245L10.1542 8.97605ZM9.44814 7.82399H8.63831L9.04325 6.51366L9.44814 7.82399Z" fill="#FFE70E"/>
</svg>
