<svg width="18" height="18" viewBox="0 0 18 18" fill="none" xmlns="http://www.w3.org/2000/svg">
<path d="M9.04373 17.6527C13.8463 17.6527 17.7396 13.7596 17.7396 8.95719C17.7396 4.15481 13.8463 0.261719 9.04373 0.261719C4.24115 0.261719 0.3479 4.15481 0.3479 8.95719C0.3479 13.7596 4.24115 17.6527 9.04373 17.6527Z" fill="#F0F0F0"/>
<path d="M9.04342 17.6531C12.4909 17.6531 15.4698 15.6469 16.8764 12.7383H1.21045C2.617 15.6469 5.59586 17.6531 9.04342 17.6531Z" fill="#338AF3"/>
<path d="M9.04342 0.261719C5.59586 0.261719 2.617 2.26796 1.21045 5.17656H16.8764C15.4698 2.26796 12.4909 0.261719 9.04342 0.261719Z" fill="#338AF3"/>
<path d="M5.69919 5.93359L5.98071 6.80007H6.89175L6.15472 7.33553L6.43628 8.202L5.69919 7.66651L4.96209 8.202L5.24365 7.33553L4.50659 6.80007H5.41763L5.69919 5.93359Z" fill="#338AF3"/>
<path d="M5.69919 9.71289L5.98071 10.5794H6.89175L6.15472 11.1149L6.43628 11.9813L5.69919 11.4458L4.96209 11.9813L5.24365 11.1149L4.50659 10.5794H5.41763L5.69919 9.71289Z" fill="#338AF3"/>
<path d="M12.3877 5.93359L12.6692 6.80007H13.5803L12.8432 7.33553L13.1248 8.202L12.3877 7.66651L11.6506 8.202L11.9321 7.33553L11.1951 6.80007H12.1061L12.3877 5.93359Z" fill="#338AF3"/>
<path d="M12.3877 9.71289L12.6692 10.5794H13.5803L12.8432 11.1149L13.1248 11.9813L12.3877 11.4458L11.6506 11.9813L11.9321 11.1149L11.1951 10.5794H12.1061L12.3877 9.71289Z" fill="#338AF3"/>
<path d="M9.04318 7.82227L9.32474 8.68877H10.2358L9.49872 9.22424L9.78027 10.0907L9.04318 9.55518L8.30609 10.0907L8.58764 9.22424L7.85059 8.68877H8.76163L9.04318 7.82227Z" fill="#338AF3"/>
</svg>
