<svg width="20" height="21" viewBox="0 0 20 21" fill="none" xmlns="http://www.w3.org/2000/svg">
<mask id="mask0_1012_6134" style="mask-type:luminance" maskUnits="userSpaceOnUse" x="0" y="0" width="20" height="21">
<path d="M10 20.6895C15.5228 20.6895 20 16.2123 20 10.6895C20 5.16661 15.5228 0.689453 10 0.689453C4.47715 0.689453 0 5.16661 0 10.6895C0 16.2123 4.47715 20.6895 10 20.6895Z" fill="white"/>
</mask>
<g mask="url(#mask0_1012_6134)">
<path d="M-5.02942 0.688477H25.0306V20.7285H-5.02942V0.688477Z" fill="#F89939"/>
</g>
<mask id="mask1_1012_6134" style="mask-type:luminance" maskUnits="userSpaceOnUse" x="0" y="0" width="20" height="21">
<path d="M10 20.6895C15.5228 20.6895 20 16.2123 20 10.6895C20 5.16661 15.5228 0.689453 10 0.689453C4.47715 0.689453 0 5.16661 0 10.6895C0 16.2123 4.47715 20.6895 10 20.6895Z" fill="white"/>
</mask>
<g mask="url(#mask1_1012_6134)">
<path d="M-5.02942 7.36719H25.0306V14.0472H-5.02942V7.36719Z" fill="#F0EAE3"/>
</g>
<mask id="mask2_1012_6134" style="mask-type:luminance" maskUnits="userSpaceOnUse" x="0" y="0" width="20" height="21">
<path d="M10 20.6895C15.5228 20.6895 20 16.2123 20 10.6895C20 5.16661 15.5228 0.689453 10 0.689453C4.47715 0.689453 0 5.16661 0 10.6895C0 16.2123 4.47715 20.6895 10 20.6895Z" fill="white"/>
</mask>
<g mask="url(#mask2_1012_6134)">
<path d="M-5.02942 14.0498H25.0306V20.7298H-5.02942V14.0498Z" fill="#1E8943"/>
</g>
<mask id="mask3_1012_6134" style="mask-type:luminance" maskUnits="userSpaceOnUse" x="0" y="0" width="20" height="21">
<path d="M10 20.6895C15.5228 20.6895 20 16.2123 20 10.6895C20 5.16661 15.5228 0.689453 10 0.689453C4.47715 0.689453 0 5.16661 0 10.6895C0 16.2123 4.47715 20.6895 10 20.6895Z" fill="white"/>
</mask>
<g mask="url(#mask3_1012_6134)">
<path d="M10.0002 13.3811C11.476 13.3811 12.6722 12.1848 12.6722 10.7091C12.6722 9.2334 11.476 8.03711 10.0002 8.03711C8.52454 8.03711 7.32825 9.2334 7.32825 10.7091C7.32825 12.1848 8.52454 13.3811 10.0002 13.3811Z" fill="#2A2C7A"/>
</g>
<mask id="mask4_1012_6134" style="mask-type:luminance" maskUnits="userSpaceOnUse" x="0" y="0" width="20" height="21">
<path d="M10 20.6895C15.5228 20.6895 20 16.2123 20 10.6895C20 5.16661 15.5228 0.689453 10 0.689453C4.47715 0.689453 0 5.16661 0 10.6895C0 16.2123 4.47715 20.6895 10 20.6895Z" fill="white"/>
</mask>
<g mask="url(#mask4_1012_6134)">
<path d="M11.7814 9.1962C11.7405 9.1481 11.6981 9.10128 11.6535 9.05664L10.7183 10.1052L10.347 10.3969C10.3636 10.4153 10.3789 10.4349 10.3925 10.4557L10.7702 10.1728L12.0248 9.54096C11.9931 9.4862 11.9594 9.43278 11.9235 9.38096C11.8725 9.418 11.801 9.40808 11.7623 9.35774C11.7238 9.3075 11.7327 9.23604 11.7814 9.1962Z" fill="#F0EAE3"/>
<path d="M9.7104 8.50506C9.64748 8.5133 9.58996 8.46982 9.57992 8.40756C9.4543 8.43038 9.33208 8.4629 9.2143 8.50496C9.23714 8.56404 9.20908 8.63078 9.15026 8.65508C9.09152 8.67942 9.02444 8.65216 8.9988 8.59422C8.94162 8.62136 8.88592 8.6511 8.83142 8.68264L9.6021 9.85716L9.78764 10.291C9.80962 10.2798 9.8325 10.2701 9.8563 10.2624L9.68082 9.82452L9.3951 8.44882L9.83564 9.7831L9.90256 10.2499C9.9265 10.2448 9.95122 10.242 9.97636 10.2407L9.92012 9.7719L10.0003 8.36914C9.9365 8.36914 9.87354 8.37242 9.81108 8.37742C9.81746 8.43996 9.77316 8.49672 9.7104 8.50506Z" fill="#F0EAE3"/>
<path d="M11.3525 8.94599C11.3022 8.90729 11.2923 8.83587 11.3293 8.78481C11.2775 8.74893 11.2241 8.71525 11.1693 8.68359L10.5374 9.93821L10.2545 10.3159C10.2754 10.3295 10.295 10.3447 10.3134 10.3613L10.6051 9.99009L11.6537 9.05489C11.609 9.01027 11.5622 8.96783 11.5141 8.92693C11.4743 8.97567 11.4028 8.98455 11.3525 8.94599Z" fill="#F0EAE3"/>
<path d="M10.605 11.4279L10.3134 11.0566C10.295 11.0732 10.2754 11.0885 10.2545 11.1021L10.5374 11.4798L11.1693 12.7344C11.2241 12.7027 11.2775 12.669 11.3293 12.6331C11.2923 12.5821 11.3022 12.5106 11.3525 12.4719C11.4028 12.4334 11.4743 12.4423 11.5141 12.491C11.5622 12.4501 11.609 12.4077 11.6537 12.3631L10.605 11.4279Z" fill="#F0EAE3"/>
<path d="M10.9353 10.7901L10.4665 10.7338C10.4652 10.759 10.4624 10.7837 10.4573 10.8076L10.9241 10.8745L12.2583 11.3151L10.8827 11.0294L10.4448 10.8539C10.4371 10.8777 10.4274 10.9006 10.4161 10.9226L10.85 11.1081L12.0246 11.8788C12.0561 11.8242 12.0858 11.7686 12.113 11.7114C12.055 11.6857 12.0278 11.6186 12.0521 11.5599C12.0764 11.5011 12.1432 11.473 12.2022 11.4959C12.2443 11.3781 12.2768 11.2559 12.2996 11.1303C12.2374 11.1202 12.1939 11.0627 12.2021 10.9998C12.2104 10.9371 12.2672 10.8927 12.3297 10.8991C12.3348 10.8367 12.338 10.7737 12.338 10.71L10.9353 10.7901Z" fill="#F0EAE3"/>
<path d="M12.2021 10.42C12.1939 10.3571 12.2373 10.2996 12.2996 10.2895C12.2768 10.1639 12.2442 10.0417 12.2022 9.9239C12.1432 9.94674 12.0764 9.91868 12.0521 9.85986C12.0277 9.80112 12.055 9.73404 12.113 9.7084C12.0858 9.65122 12.0561 9.59552 12.0245 9.54102L10.85 10.3117L10.4161 10.4972C10.4274 10.5192 10.4371 10.5421 10.4448 10.5659L10.8827 10.3904L12.2583 10.1047L10.9241 10.5452L10.4573 10.6122C10.4624 10.6361 10.4652 10.6608 10.4665 10.686L10.9353 10.6297L12.338 10.7099C12.338 10.6461 12.3348 10.5831 12.3297 10.5207C12.2672 10.5271 12.2104 10.4828 12.2021 10.42Z" fill="#F0EAE3"/>
<path d="M10.7702 11.2458L10.3925 10.9629C10.3789 10.9838 10.3636 11.0033 10.347 11.0217L10.7183 11.3134L11.6535 12.362C11.6981 12.3174 11.7405 12.2706 11.7814 12.2225C11.7327 12.1826 11.7238 12.1112 11.7624 12.0609C11.801 12.0106 11.8725 12.0006 11.9236 12.0377C11.9594 11.9858 11.9931 11.9324 12.0248 11.8777L10.7702 11.2458Z" fill="#F0EAE3"/>
<path d="M10.0245 10.2407C10.0496 10.242 10.0743 10.2448 10.0983 10.2499L10.1652 9.78308L10.6057 8.4488L10.32 9.8245L10.1446 10.2623C10.1684 10.27 10.1912 10.2798 10.2132 10.291L10.3987 9.85714L11.1694 8.68262C11.1149 8.65108 11.0592 8.62138 11.0021 8.59422C10.9764 8.65216 10.9093 8.67942 10.8506 8.65508C10.7918 8.63078 10.7637 8.56404 10.7865 8.50496C10.6688 8.4629 10.5466 8.43038 10.4209 8.40756C10.4109 8.46982 10.3534 8.51328 10.2905 8.50506C10.2277 8.49674 10.1834 8.43998 10.1898 8.37742C10.1273 8.37242 10.0644 8.36914 10.0006 8.36914L10.0808 9.77188L10.0245 10.2407Z" fill="#F0EAE3"/>
<path d="M9.39565 9.99011L9.68735 10.3614C9.70573 10.3448 9.72529 10.3295 9.74617 10.3159L9.46327 9.93823L8.83139 8.68359C8.77663 8.71527 8.72321 8.74895 8.67139 8.78483C8.70843 8.83589 8.69851 8.90733 8.64817 8.94601C8.59791 8.98457 8.52645 8.97569 8.48661 8.92693C8.43851 8.96785 8.39167 9.01025 8.34705 9.05489L9.39565 9.99011Z" fill="#F0EAE3"/>
<path d="M9.22972 10.1728L9.6074 10.4557C9.62096 10.4349 9.63624 10.4153 9.65286 10.3969L9.2816 10.1052L8.3464 9.05664C8.30176 9.10126 8.25934 9.1481 8.21844 9.1962C8.2672 9.23604 8.27606 9.3075 8.23752 9.35776C8.19884 9.4081 8.1274 9.41802 8.07634 9.38098C8.04046 9.4328 8.00678 9.48622 7.9751 9.54098L9.22972 10.1728Z" fill="#F0EAE3"/>
<path d="M9.97636 11.1753C9.95122 11.1741 9.9265 11.1712 9.90256 11.1661L9.83564 11.6329L9.3951 12.9672L9.68082 11.5915L9.8563 11.1537C9.8325 11.146 9.80962 11.1363 9.78764 11.125L9.6021 11.5589L8.83142 12.7334C8.88594 12.7649 8.94162 12.7947 8.9988 12.8218C9.02444 12.7639 9.09152 12.7366 9.15026 12.7609C9.20908 12.7853 9.23714 12.852 9.2143 12.9111C9.33208 12.9531 9.4543 12.9857 9.57992 13.0085C9.58996 12.9462 9.64746 12.9028 9.71038 12.911C9.77314 12.9193 9.81746 12.9761 9.81106 13.0386C9.87352 13.0436 9.93648 13.0469 10.0002 13.0469L9.92012 11.6441L9.97636 11.1753Z" fill="#F0EAE3"/>
<path d="M8.83139 12.7344L9.46327 11.4798L9.74617 11.1021C9.72529 11.0885 9.70575 11.0732 9.68735 11.0566L9.39563 11.4279L8.34705 12.3631C8.39169 12.4077 8.43851 12.4501 8.48661 12.491C8.52645 12.4423 8.59791 12.4334 8.64817 12.4719C8.69851 12.5106 8.70843 12.5821 8.67139 12.6331C8.72321 12.669 8.77663 12.7027 8.83139 12.7344Z" fill="#F0EAE3"/>
<path d="M10.2899 12.911C10.3528 12.9027 10.4103 12.9462 10.4203 13.0084C10.5459 12.9856 10.6682 12.9531 10.7859 12.9111C10.7631 12.852 10.7912 12.7853 10.85 12.7609C10.9087 12.7366 10.9758 12.7639 11.0014 12.8218C11.0586 12.7947 11.1143 12.7649 11.1688 12.7334L10.3981 11.5589L10.2126 11.125C10.1906 11.1362 10.1678 11.146 10.1439 11.1537L10.3194 11.5915L10.6051 12.9672L10.1646 11.6329L10.0977 11.1661C10.0737 11.1712 10.049 11.1741 10.0239 11.1753L10.0801 11.6441L10 13.0469C10.0638 13.0469 10.1267 13.0436 10.1892 13.0386C10.1828 12.976 10.2271 12.9193 10.2899 12.911Z" fill="#F0EAE3"/>
<path d="M7.8867 11.7104C7.91386 11.7676 7.94356 11.8233 7.9751 11.8778L9.14962 11.1071L9.5835 10.9216C9.57226 10.8996 9.56254 10.8768 9.55482 10.853L9.11698 11.0284L7.74128 11.3141L9.07556 10.8736L9.54238 10.8067C9.53728 10.7827 9.53446 10.758 9.5332 10.7329L9.06436 10.7891L7.66162 10.709C7.66162 10.7727 7.6649 10.8357 7.6699 10.8982C7.73244 10.8918 7.78922 10.9361 7.79754 10.9988C7.80578 11.0618 7.7623 11.1193 7.70004 11.1293C7.72286 11.2549 7.75538 11.3771 7.79744 11.4949C7.85652 11.4721 7.92326 11.5002 7.94756 11.559C7.9719 11.6177 7.94462 11.6848 7.8867 11.7104Z" fill="#F0EAE3"/>
<path d="M9.65284 11.0217C9.63622 11.0033 9.62094 10.9838 9.6074 10.9629L9.22972 11.2458L7.9751 11.8777C8.00676 11.9324 8.04044 11.9859 8.07632 12.0377C8.12738 12.0007 8.19882 12.0106 8.2375 12.0609C8.27606 12.1112 8.26718 12.1826 8.21842 12.2225C8.25934 12.2706 8.30176 12.3174 8.34638 12.362L9.28158 11.3134L9.65284 11.0217Z" fill="#F0EAE3"/>
<path d="M9.53322 10.686C9.5345 10.6608 9.53732 10.6361 9.5424 10.6122L9.07558 10.5452L7.7413 10.1047L9.117 10.3904L9.55484 10.5659C9.56254 10.5421 9.57226 10.5192 9.58352 10.4972L9.14964 10.3117L7.97512 9.54102C7.94358 9.59554 7.91386 9.65122 7.8867 9.7084C7.94464 9.73404 7.97192 9.80112 7.94756 9.85986C7.92326 9.91868 7.85652 9.94674 7.79744 9.9239C7.75538 10.0417 7.72286 10.1639 7.70004 10.2895C7.7623 10.2995 7.80576 10.3571 7.79754 10.42C7.78922 10.4827 7.73246 10.5271 7.6699 10.5207C7.6649 10.5831 7.66162 10.6461 7.66162 10.7099L9.06436 10.6297L9.53322 10.686Z" fill="#F0EAE3"/>
</g>
</svg>
