<svg width="20" height="21" viewBox="0 0 20 21" fill="none" xmlns="http://www.w3.org/2000/svg">
<mask id="mask0_1012_6176" style="mask-type:luminance" maskUnits="userSpaceOnUse" x="0" y="0" width="20" height="21">
<path d="M10 20.6895C15.5228 20.6895 20 16.2123 20 10.6895C20 5.16661 15.5228 0.689453 10 0.689453C4.47715 0.689453 0 5.16661 0 10.6895C0 16.2123 4.47715 20.6895 10 20.6895Z" fill="white"/>
</mask>
<g mask="url(#mask0_1012_6176)">
<path d="M-5.02942 0.688477H25.0306V20.7285H-5.02942V0.688477Z" fill="#F0EAE3"/>
</g>
<mask id="mask1_1012_6176" style="mask-type:luminance" maskUnits="userSpaceOnUse" x="0" y="0" width="20" height="21">
<path d="M10 20.6895C15.5228 20.6895 20 16.2123 20 10.6895C20 5.16661 15.5228 0.689453 10 0.689453C4.47715 0.689453 0 5.16661 0 10.6895C0 16.2123 4.47715 20.6895 10 20.6895Z" fill="white"/>
</mask>
<g mask="url(#mask1_1012_6176)">
<path d="M-5.02942 0.688477H25.0306V6.70048H-5.02942V0.688477Z" fill="#010101"/>
</g>
<mask id="mask2_1012_6176" style="mask-type:luminance" maskUnits="userSpaceOnUse" x="0" y="0" width="20" height="21">
<path d="M10 20.6895C15.5228 20.6895 20 16.2123 20 10.6895C20 5.16661 15.5228 0.689453 10 0.689453C4.47715 0.689453 0 5.16661 0 10.6895C0 16.2123 4.47715 20.6895 10 20.6895Z" fill="white"/>
</mask>
<g mask="url(#mask2_1012_6176)">
<path d="M-5.02942 14.7168H25.0306V20.7288H-5.02942V14.7168Z" fill="#166734"/>
</g>
<mask id="mask3_1012_6176" style="mask-type:luminance" maskUnits="userSpaceOnUse" x="0" y="0" width="20" height="21">
<path d="M10 20.6895C15.5228 20.6895 20 16.2123 20 10.6895C20 5.16661 15.5228 0.689453 10 0.689453C4.47715 0.689453 0 5.16661 0 10.6895C0 16.2123 4.47715 20.6895 10 20.6895Z" fill="white"/>
</mask>
<g mask="url(#mask3_1012_6176)">
<path d="M6.42078 16.6587L6.63784 16.7839L12.4885 6.65009C12.8307 6.55843 13.0186 6.23293 13.2065 5.90755C13.3317 5.69069 13.8327 4.82289 14.0499 3.69531C13.182 4.44717 12.681 5.31491 12.5557 5.53183C12.3679 5.85721 12.18 6.18271 12.2716 6.52485L6.42078 16.6587Z" fill="#010101"/>
</g>
<mask id="mask4_1012_6176" style="mask-type:luminance" maskUnits="userSpaceOnUse" x="0" y="0" width="20" height="21">
<path d="M10 20.6895C15.5228 20.6895 20 16.2123 20 10.6895C20 5.16661 15.5228 0.689453 10 0.689453C4.47715 0.689453 0 5.16661 0 10.6895C0 16.2123 4.47715 20.6895 10 20.6895Z" fill="white"/>
</mask>
<g mask="url(#mask4_1012_6176)">
<path d="M6.66075 16.8692L6.33521 16.6814L12.2047 6.51522C12.1219 6.1576 12.3148 5.82356 12.5015 5.50028C13.0236 4.59612 13.6094 3.99382 14.0089 3.64774L14.1456 3.5293L14.1114 3.70692C14.0113 4.22634 13.7825 5.03514 13.2607 5.93862C13.0739 6.26206 12.8811 6.59606 12.5301 6.7031L6.66075 16.8692ZM6.50633 16.6355L6.61489 16.6982L12.4473 6.59608L12.4723 6.58938C12.7894 6.50446 12.9656 6.19928 13.1521 5.8762C13.6067 5.08912 13.835 4.376 13.9495 3.86892C13.5679 4.2214 13.0646 4.7755 12.61 5.56276C12.4234 5.88602 12.2471 6.1912 12.3321 6.5084L12.3388 6.53344L6.50633 16.6355Z" fill="#010101"/>
</g>
<mask id="mask5_1012_6176" style="mask-type:luminance" maskUnits="userSpaceOnUse" x="0" y="0" width="20" height="21">
<path d="M10 20.6895C15.5228 20.6895 20 16.2123 20 10.6895C20 5.16661 15.5228 0.689453 10 0.689453C4.47715 0.689453 0 5.16661 0 10.6895C0 16.2123 4.47715 20.6895 10 20.6895Z" fill="white"/>
</mask>
<g mask="url(#mask5_1012_6176)">
<path d="M6.42078 16.6587L6.63784 16.7839L12.4885 6.65007C12.8307 6.55843 13.0186 6.23291 13.2065 5.90755C13.3317 5.69067 13.8327 4.82289 14.0499 3.69531C13.182 4.44713 12.681 5.31491 12.5557 5.53181C12.3679 5.85719 12.18 6.18271 12.2716 6.52483L6.42078 16.6587Z" fill="#F0EAE3"/>
</g>
<mask id="mask6_1012_6176" style="mask-type:luminance" maskUnits="userSpaceOnUse" x="0" y="0" width="20" height="21">
<path d="M10 20.6895C15.5228 20.6895 20 16.2123 20 10.6895C20 5.16661 15.5228 0.689453 10 0.689453C4.47715 0.689453 0 5.16661 0 10.6895C0 16.2123 4.47715 20.6895 10 20.6895Z" fill="white"/>
</mask>
<g mask="url(#mask6_1012_6176)">
<path d="M13.5792 16.6587L13.3622 16.7839L7.51145 6.65009C7.16931 6.55843 6.98143 6.23293 6.79355 5.90755C6.66827 5.69069 6.16731 4.82289 5.95007 3.69531C6.81801 4.44717 7.31901 5.31491 7.44425 5.53183C7.63217 5.85721 7.82005 6.18271 7.72839 6.52485L13.5792 16.6587Z" fill="#010101"/>
</g>
<mask id="mask7_1012_6176" style="mask-type:luminance" maskUnits="userSpaceOnUse" x="0" y="0" width="20" height="21">
<path d="M10 20.6895C15.5228 20.6895 20 16.2123 20 10.6895C20 5.16661 15.5228 0.689453 10 0.689453C4.47715 0.689453 0 5.16661 0 10.6895C0 16.2123 4.47715 20.6895 10 20.6895Z" fill="white"/>
</mask>
<g mask="url(#mask7_1012_6176)">
<path d="M13.3394 16.8692L7.46999 6.70308C7.11905 6.59604 6.92619 6.26204 6.73955 5.93882C6.21763 5.0353 5.98879 4.22642 5.88869 3.7069L5.85449 3.5293L5.99119 3.64772C6.39079 3.99386 6.97667 4.59622 7.49859 5.50026C7.68531 5.82354 7.87821 6.15754 7.79539 6.5152L13.6649 16.6813L13.3394 16.8692ZM6.05057 3.86892C6.16511 4.37604 6.39345 5.08922 6.84791 5.87598C7.03457 6.19928 7.21077 6.50446 7.52779 6.58938L7.55283 6.59608L13.3852 16.6982L13.4938 16.6355L7.66129 6.53344L7.66801 6.5084C7.75297 6.19118 7.57673 5.886 7.39013 5.5629C6.93557 4.77556 6.43227 4.22144 6.05057 3.86892Z" fill="#010101"/>
</g>
<mask id="mask8_1012_6176" style="mask-type:luminance" maskUnits="userSpaceOnUse" x="0" y="0" width="20" height="21">
<path d="M10 20.6895C15.5228 20.6895 20 16.2123 20 10.6895C20 5.16661 15.5228 0.689453 10 0.689453C4.47715 0.689453 0 5.16661 0 10.6895C0 16.2123 4.47715 20.6895 10 20.6895Z" fill="white"/>
</mask>
<g mask="url(#mask8_1012_6176)">
<path d="M13.5792 16.6587L13.3622 16.7839L7.51143 6.65007C7.16931 6.55843 6.98143 6.23291 6.79355 5.90755C6.66829 5.69067 6.16731 4.82289 5.95007 3.69531C6.81801 4.44713 7.31901 5.31491 7.44427 5.53181C7.63215 5.85719 7.82003 6.18271 7.72839 6.52483L13.5792 16.6587Z" fill="#F0EAE3"/>
</g>
<mask id="mask9_1012_6176" style="mask-type:luminance" maskUnits="userSpaceOnUse" x="0" y="0" width="20" height="21">
<path d="M10 20.6895C15.5228 20.6895 20 16.2123 20 10.6895C20 5.16661 15.5228 0.689453 10 0.689453C4.47715 0.689453 0 5.16661 0 10.6895C0 16.2123 4.47715 20.6895 10 20.6895Z" fill="white"/>
</mask>
<g mask="url(#mask9_1012_6176)">
<path d="M-5.02942 7.70327V13.7153H7.62084C7.99658 14.7173 9.24908 16.7213 10.0006 16.7213C10.7521 16.7213 12.0046 14.7173 12.3803 13.7153H25.0306V7.70327H12.3803C12.0046 6.70127 10.7521 4.69727 10.0006 4.69727C9.24908 4.69727 7.99658 6.70127 7.62084 7.70327H-5.02942Z" fill="#BA2025"/>
</g>
<mask id="mask10_1012_6176" style="mask-type:luminance" maskUnits="userSpaceOnUse" x="0" y="0" width="20" height="21">
<path d="M10 20.6895C15.5228 20.6895 20 16.2123 20 10.6895C20 5.16661 15.5228 0.689453 10 0.689453C4.47715 0.689453 0 5.16661 0 10.6895C0 16.2123 4.47715 20.6895 10 20.6895Z" fill="white"/>
</mask>
<g mask="url(#mask10_1012_6176)">
<path d="M12.3797 13.7141C12.7554 12.7121 13.0059 11.7101 13.0059 10.7081C13.0059 9.70615 12.7554 8.70415 12.3797 7.70215C12.0039 8.70415 11.7534 9.70615 11.7534 10.7081C11.7534 11.7101 12.0039 12.7121 12.3797 13.7141Z" fill="#010101"/>
</g>
<mask id="mask11_1012_6176" style="mask-type:luminance" maskUnits="userSpaceOnUse" x="0" y="0" width="20" height="21">
<path d="M10 20.6895C15.5228 20.6895 20 16.2123 20 10.6895C20 5.16661 15.5228 0.689453 10 0.689453C4.47715 0.689453 0 5.16661 0 10.6895C0 16.2123 4.47715 20.6895 10 20.6895Z" fill="white"/>
</mask>
<g mask="url(#mask11_1012_6176)">
<path d="M7.62077 13.7141C7.24501 12.7121 6.99451 11.7101 6.99451 10.7081C6.99451 9.70615 7.24501 8.70415 7.62075 7.70215C7.99649 8.70415 8.24699 9.70615 8.24699 10.7081C8.24701 11.7101 7.99651 12.7121 7.62077 13.7141Z" fill="#010101"/>
</g>
<mask id="mask12_1012_6176" style="mask-type:luminance" maskUnits="userSpaceOnUse" x="0" y="0" width="21" height="21">
<path d="M10.0002 20.6895C15.5231 20.6895 20.0002 16.2123 20.0002 10.6895C20.0002 5.16661 15.5231 0.689453 10.0002 0.689453C4.4774 0.689453 0.000244141 5.16661 0.000244141 10.6895C0.000244141 16.2123 4.4774 20.6895 10.0002 20.6895Z" fill="white"/>
</mask>
<g mask="url(#mask12_1012_6176)">
<path d="M10.5015 10.7085C10.5015 11.1236 10.2773 11.46 10.0005 11.46C9.72375 11.46 9.49951 11.1236 9.49951 10.7085C9.49951 10.2935 9.72375 9.95703 10.0005 9.95703C10.2773 9.95703 10.5015 10.2935 10.5015 10.7085Z" fill="#F0EAE3"/>
</g>
<mask id="mask13_1012_6176" style="mask-type:luminance" maskUnits="userSpaceOnUse" x="0" y="0" width="21" height="21">
<path d="M10.0002 20.6895C15.5231 20.6895 20.0002 16.2123 20.0002 10.6895C20.0002 5.16661 15.5231 0.689453 10.0002 0.689453C4.4774 0.689453 0.000244141 5.16661 0.000244141 10.6895C0.000244141 16.2123 4.4774 20.6895 10.0002 20.6895Z" fill="white"/>
</mask>
<g mask="url(#mask13_1012_6176)">
<path d="M10.1259 11.4424C10.1259 11.4424 10.6269 12.4444 10.6269 14.0726C10.6269 15.7009 10.1259 16.7029 10.1259 16.7029V11.4424Z" fill="#F0EAE3"/>
</g>
<mask id="mask14_1012_6176" style="mask-type:luminance" maskUnits="userSpaceOnUse" x="0" y="0" width="21" height="21">
<path d="M10.0002 20.6895C15.5231 20.6895 20.0002 16.2123 20.0002 10.6895C20.0002 5.16661 15.5231 0.689453 10.0002 0.689453C4.4774 0.689453 0.000244141 5.16661 0.000244141 10.6895C0.000244141 16.2123 4.4774 20.6895 10.0002 20.6895Z" fill="white"/>
</mask>
<g mask="url(#mask14_1012_6176)">
<path d="M9.87515 9.97534C9.87515 9.97534 9.37415 8.97334 9.37415 7.34508C9.37415 5.71682 9.87515 4.71484 9.87515 4.71484V9.97534Z" fill="#F0EAE3"/>
</g>
<mask id="mask15_1012_6176" style="mask-type:luminance" maskUnits="userSpaceOnUse" x="0" y="0" width="21" height="21">
<path d="M10.0002 20.6895C15.5231 20.6895 20.0002 16.2123 20.0002 10.6895C20.0002 5.16661 15.5231 0.689453 10.0002 0.689453C4.4774 0.689453 0.000244141 5.16661 0.000244141 10.6895C0.000244141 16.2123 4.4774 20.6895 10.0002 20.6895Z" fill="white"/>
</mask>
<g mask="url(#mask15_1012_6176)">
<path d="M9.87515 11.4424C9.87515 11.4424 9.37415 12.4444 9.37415 14.0726C9.37415 15.7009 9.87515 16.7029 9.87515 16.7029V11.4424Z" fill="#F0EAE3"/>
</g>
<mask id="mask16_1012_6176" style="mask-type:luminance" maskUnits="userSpaceOnUse" x="0" y="0" width="21" height="21">
<path d="M10.0002 20.6895C15.5231 20.6895 20.0002 16.2123 20.0002 10.6895C20.0002 5.16661 15.5231 0.689453 10.0002 0.689453C4.4774 0.689453 0.000244141 5.16661 0.000244141 10.6895C0.000244141 16.2123 4.4774 20.6895 10.0002 20.6895Z" fill="white"/>
</mask>
<g mask="url(#mask16_1012_6176)">
<path d="M10.1259 9.97534C10.1259 9.97534 10.6269 8.97334 10.6269 7.34508C10.6269 5.71682 10.1259 4.71484 10.1259 4.71484V9.97534Z" fill="#F0EAE3"/>
</g>
</svg>
