<svg width="20" height="21" viewBox="0 0 20 21" fill="none" xmlns="http://www.w3.org/2000/svg">
<path d="M0.00012207 10.6889C0.00012207 12.4213 0.440864 14.0508 1.21602 15.4715L10.0001 16.3411L18.7842 15.4715C19.5594 14.0508 20.0001 12.4213 20.0001 10.6889L10.0001 9.81934L0.00012207 10.6889Z" fill="#FFDA44"/>
<path d="M18.7842 5.90586C17.0882 2.79742 13.7906 0.688477 10.0001 0.688477C6.20969 0.688477 2.91208 2.79742 1.21602 5.90586C0.440864 7.3266 0.00012207 8.95605 0.00012207 10.6885H20.0001C20.0001 8.95605 19.5594 7.3266 18.7842 5.90586Z" fill="#338AF3"/>
<path d="M10.0002 20.69C13.7906 20.69 17.0882 18.5811 18.7843 15.4727H1.21606C2.91212 18.5811 6.20974 20.69 10.0002 20.69Z" fill="#496E2D"/>
<path d="M11.3046 6.54145L12.5259 7.11594L11.8755 8.29875L13.2017 8.04508L13.3698 9.38473L14.2934 8.39941L15.2172 9.38473L15.3852 8.04508L16.7114 8.29867L16.0611 7.1159L17.2823 6.54145L16.061 5.96703L16.7114 4.78422L15.3852 5.03789L15.2171 3.69824L14.2934 4.68355L13.3697 3.69824L13.2017 5.03789L11.8755 4.78422L12.5259 5.96707L11.3046 6.54145Z" fill="#FFDA44"/>
</svg>
